# xmcd
#
# Track frame offsets:
# 150
# 65730
# 131941
# 192136
# 235160
# 285171
#
# Disc length: 3949 seconds
#
#
# Revision: 0
# Processed by: cddbd v1.5.1PL2 Copyright (c) Steve Scherf et al.
# Submitted via: FreeRIP 2.941 
#
DISCID=540f6b06
DTITLE=juan formell y los van van - en vivo 2006
DYEAR=1900
DGENRE=latin
TTITLE0=despues de todo
TTITLE1=anda ven y quiereme
TTITLE2=la buena
TTITLE3=ven, ven, ven
TTITLE4=oruda
TTITLE5=cierre
EXTD=
EXTT0=
EXTT1=
EXTT2=
EXTT3=
EXTT4=
EXTT5=
PLAYORDER=
